<?xml version="1.0" encoding="UTF-8" standalone="no"?>
<!DOCTYPE svg PUBLIC "-//W3C//DTD SVG 1.1//EN"
 "http://www.w3.org/Graphics/SVG/1.1/DTD/svg11.dtd">
<!-- Generated by graphviz version 2.38.0 (20140413.2041)
 -->
<!-- Title: %3 Pages: 1 -->
<svg width="507pt" height="368pt"
 viewBox="0.00 0.00 506.50 367.73" xmlns="http://www.w3.org/2000/svg" xmlns:xlink="http://www.w3.org/1999/xlink">
<g id="graph0" class="graph" transform="scale(1 1) rotate(0) translate(4 363.73)">
<title>%3</title>
<polygon fill="white" stroke="none" points="-4,4 -4,-363.73 502.5,-363.73 502.5,4 -4,4"/>
<!-- Left 1 -->
<g id="node1" class="node"><title>Left 1</title>
<polygon fill="lightgray" stroke="black" points="94,-269.09 56,-269.09 56,-251.09 94,-251.09 94,-269.09"/>
<text text-anchor="middle" x="75" y="-257.89" font-family="Times,serif" font-size="9.00">Left 1</text>
</g>
<!-- Move Forward -->
<g id="node12" class="node"><title>Move Forward</title>
<ellipse fill="lightblue" stroke="black" cx="131" cy="-152.673" rx="50.41" ry="50.41"/>
<text text-anchor="middle" x="131" y="-150.473" font-family="Times,serif" font-size="9.00">Move Forward</text>
</g>
<!-- Left 1&#45;&gt;Move Forward -->
<g id="edge6" class="edge"><title>Left 1&#45;&gt;Move Forward</title>
<path fill="none" stroke="red" stroke-width="0.18496" d="M79.3942,-250.818C84.6199,-240.981 93.7947,-223.71 102.973,-206.432"/>
<polygon fill="red" stroke="red" stroke-width="0.18496" points="106.152,-207.908 107.753,-197.435 99.9703,-204.624 106.152,-207.908"/>
</g>
<!-- 732 -->
<g id="node15" class="node"><title>732</title>
<ellipse fill="white" stroke="black" cx="42" cy="-152.673" rx="21.4286" ry="21.4286"/>
<text text-anchor="middle" x="42" y="-150.473" font-family="Times,serif" font-size="9.00">732</text>
</g>
<!-- Left 1&#45;&gt;732 -->
<g id="edge7" class="edge"><title>Left 1&#45;&gt;732</title>
<path fill="none" stroke="green" stroke-width="0.659824" d="M72.4105,-250.818C67.884,-236.358 58.3291,-205.836 51.1301,-182.839"/>
<polygon fill="green" stroke="green" stroke-width="0.659824" points="54.4405,-181.698 48.1128,-173.2 47.7602,-183.789 54.4405,-181.698"/>
</g>
<!-- Left 2 -->
<g id="node2" class="node"><title>Left 2</title>
<polygon fill="lightgray" stroke="black" points="38,-269.09 0,-269.09 0,-251.09 38,-251.09 38,-269.09"/>
<text text-anchor="middle" x="19" y="-257.89" font-family="Times,serif" font-size="9.00">Left 2</text>
</g>
<!-- Left 2&#45;&gt;732 -->
<g id="edge15" class="edge"><title>Left 2&#45;&gt;732</title>
<path fill="none" stroke="green" stroke-width="0.194516" d="M20.8048,-250.818C23.9271,-236.507 30.4822,-206.463 35.4809,-183.552"/>
<polygon fill="green" stroke="green" stroke-width="0.194516" points="38.9381,-184.126 37.6502,-173.609 32.0989,-182.633 38.9381,-184.126"/>
</g>
<!-- Left 3 -->
<g id="node3" class="node"><title>Left 3</title>
<polygon fill="lightgray" stroke="black" points="150,-269.09 112,-269.09 112,-251.09 150,-251.09 150,-269.09"/>
<text text-anchor="middle" x="131" y="-257.89" font-family="Times,serif" font-size="9.00">Left 3</text>
</g>
<!-- Left 3&#45;&gt;Move Forward -->
<g id="edge3" class="edge"><title>Left 3&#45;&gt;Move Forward</title>
<path fill="none" stroke="red" stroke-width="0.135166" d="M131,-250.818C131,-242.3 131,-228.207 131,-213.363"/>
<polygon fill="red" stroke="red" stroke-width="0.135166" points="134.5,-213.025 131,-203.025 127.5,-213.025 134.5,-213.025"/>
</g>
<!-- Left 4 -->
<g id="node4" class="node"><title>Left 4</title>
<polygon fill="lightgray" stroke="black" points="206,-269.09 168,-269.09 168,-251.09 206,-251.09 206,-269.09"/>
<text text-anchor="middle" x="187" y="-257.89" font-family="Times,serif" font-size="9.00">Left 4</text>
</g>
<!-- Turn left -->
<g id="node11" class="node"><title>Turn left</title>
<ellipse fill="lightblue" stroke="black" cx="125" cy="-33.234" rx="33.4697" ry="33.4697"/>
<text text-anchor="middle" x="125" y="-31.034" font-family="Times,serif" font-size="9.00">Turn left</text>
</g>
<!-- Left 4&#45;&gt;Turn left -->
<g id="edge12" class="edge"><title>Left 4&#45;&gt;Turn left</title>
<path fill="none" stroke="red" stroke-width="0.271522" d="M189.311,-250.873C195.605,-226.918 211.214,-155.494 190,-102.468 183.558,-86.3663 171.307,-71.9003 159.162,-60.4759"/>
<polygon fill="red" stroke="red" stroke-width="0.271522" points="161.452,-57.8287 151.666,-53.7683 156.784,-63.045 161.452,-57.8287"/>
</g>
<!-- Left 4&#45;&gt;Move Forward -->
<g id="edge5" class="edge"><title>Left 4&#45;&gt;Move Forward</title>
<path fill="none" stroke="green" stroke-width="0.235239" d="M182.606,-250.818C177.38,-240.981 168.205,-223.71 159.027,-206.432"/>
<polygon fill="green" stroke="green" stroke-width="0.235239" points="162.03,-204.624 154.247,-197.435 155.848,-207.908 162.03,-204.624"/>
</g>
<!-- Centre -->
<g id="node5" class="node"><title>Centre</title>
<polygon fill="lightgray" stroke="black" points="316,-347.517 276,-347.517 276,-329.517 316,-329.517 316,-347.517"/>
<text text-anchor="middle" x="296" y="-336.317" font-family="Times,serif" font-size="9.00">Centre</text>
</g>
<!-- Turn right -->
<g id="node10" class="node"><title>Turn right</title>
<ellipse fill="lightblue" stroke="black" cx="320" cy="-152.673" rx="37.4533" ry="37.4533"/>
<text text-anchor="middle" x="320" y="-150.473" font-family="Times,serif" font-size="9.00">Turn right</text>
</g>
<!-- Centre&#45;&gt;Turn right -->
<g id="edge1" class="edge"><title>Centre&#45;&gt;Turn right</title>
<path fill="none" stroke="red" stroke-width="0.347353" d="M297.094,-329.14C300.02,-306.722 308.198,-244.077 313.944,-200.064"/>
<polygon fill="red" stroke="red" stroke-width="0.347353" points="317.415,-200.514 315.239,-190.145 310.474,-199.608 317.415,-200.514"/>
</g>
<!-- 828 -->
<g id="node13" class="node"><title>828</title>
<ellipse fill="white" stroke="black" cx="345" cy="-260.09" rx="21.4286" ry="21.4286"/>
<text text-anchor="middle" x="345" y="-257.89" font-family="Times,serif" font-size="9.00">828</text>
</g>
<!-- Centre&#45;&gt;828 -->
<g id="edge14" class="edge"><title>Centre&#45;&gt;828</title>
<path fill="none" stroke="green" stroke-width="0.274786" d="M301.244,-329.338C307.664,-319.325 318.849,-301.879 328.303,-287.133"/>
<polygon fill="green" stroke="green" stroke-width="0.274786" points="331.457,-288.698 333.908,-278.391 325.564,-284.92 331.457,-288.698"/>
</g>
<!-- Right 4 -->
<g id="node6" class="node"><title>Right 4</title>
<polygon fill="lightgray" stroke="black" points="498.5,-347.517 455.5,-347.517 455.5,-329.517 498.5,-329.517 498.5,-347.517"/>
<text text-anchor="middle" x="477" y="-336.317" font-family="Times,serif" font-size="9.00">Right 4</text>
</g>
<!-- Right 3 -->
<g id="node7" class="node"><title>Right 3</title>
<polygon fill="lightgray" stroke="black" points="487.5,-269.09 444.5,-269.09 444.5,-251.09 487.5,-251.09 487.5,-269.09"/>
<text text-anchor="middle" x="466" y="-257.89" font-family="Times,serif" font-size="9.00">Right 3</text>
</g>
<!-- Right 3&#45;&gt;Turn right -->
<g id="edge8" class="edge"><title>Right 3&#45;&gt;Turn right</title>
<path fill="none" stroke="green" stroke-width="0.79985" d="M454.544,-250.818C434.056,-236.026 390.288,-204.423 358.213,-181.264"/>
<polygon fill="green" stroke="green" stroke-width="0.79985" points="360.076,-178.292 349.92,-175.276 355.978,-183.967 360.076,-178.292"/>
</g>
<!-- Right 2 -->
<g id="node8" class="node"><title>Right 2</title>
<polygon fill="lightgray" stroke="black" points="267.5,-269.09 224.5,-269.09 224.5,-251.09 267.5,-251.09 267.5,-269.09"/>
<text text-anchor="middle" x="246" y="-257.89" font-family="Times,serif" font-size="9.00">Right 2</text>
</g>
<!-- Right 2&#45;&gt;Turn right -->
<g id="edge13" class="edge"><title>Right 2&#45;&gt;Turn right</title>
<path fill="none" stroke="green" stroke-width="0.731076" d="M251.807,-250.818C260.65,-238.221 278.051,-213.431 293.062,-192.048"/>
<polygon fill="green" stroke="green" stroke-width="0.731076" points="296.007,-193.945 298.887,-183.749 290.277,-189.923 296.007,-193.945"/>
</g>
<!-- Right 2&#45;&gt;Move Forward -->
<g id="edge10" class="edge"><title>Right 2&#45;&gt;Move Forward</title>
<path fill="none" stroke="red" stroke-width="0.484183" stroke-dasharray="1,5" d="M236.976,-250.818C223.704,-238.652 198.026,-215.114 175.271,-194.255"/>
<polygon fill="red" stroke="red" stroke-width="0.484183" points="177.425,-191.481 167.688,-187.304 172.695,-196.641 177.425,-191.481"/>
</g>
<!-- Right 1 -->
<g id="node9" class="node"><title>Right 1</title>
<polygon fill="lightgray" stroke="black" points="437.5,-347.517 394.5,-347.517 394.5,-329.517 437.5,-329.517 437.5,-347.517"/>
<text text-anchor="middle" x="416" y="-336.317" font-family="Times,serif" font-size="9.00">Right 1</text>
</g>
<!-- 554 -->
<g id="node14" class="node"><title>554</title>
<ellipse fill="white" stroke="black" cx="405" cy="-260.09" rx="21.4286" ry="21.4286"/>
<text text-anchor="middle" x="405" y="-257.89" font-family="Times,serif" font-size="9.00">554</text>
</g>
<!-- Right 1&#45;&gt;554 -->
<g id="edge4" class="edge"><title>Right 1&#45;&gt;554</title>
<path fill="none" stroke="green" stroke-width="0.372857" d="M414.823,-329.338C413.515,-320.255 411.328,-305.056 409.349,-291.304"/>
<polygon fill="green" stroke="green" stroke-width="0.372857" points="412.783,-290.595 407.894,-281.196 405.854,-291.592 412.783,-290.595"/>
</g>
<!-- 828&#45;&gt;Turn right -->
<g id="edge11" class="edge"><title>828&#45;&gt;Turn right</title>
<path fill="none" stroke="green" stroke-width="0.311108" d="M340.298,-239.262C337.612,-227.936 334.126,-213.236 330.803,-199.225"/>
<polygon fill="green" stroke="green" stroke-width="0.311108" points="334.139,-198.124 328.426,-189.202 327.328,-199.739 334.139,-198.124"/>
</g>
<!-- 732&#45;&gt;Turn left -->
<g id="edge9" class="edge"><title>732&#45;&gt;Turn left</title>
<path fill="none" stroke="red" stroke-width="0.392078" d="M52.3562,-133.6C57.9298,-124.161 65.0681,-112.515 72,-102.468 80.0101,-90.8586 89.2864,-78.5718 97.818,-67.6715"/>
<polygon fill="red" stroke="red" stroke-width="0.392078" points="100.71,-69.6567 104.164,-59.6405 95.2178,-65.3169 100.71,-69.6567"/>
</g>
<!-- 863 -->
<g id="node16" class="node"><title>863</title>
<ellipse fill="white" stroke="black" cx="355" cy="-338.517" rx="21.4286" ry="21.4286"/>
<text text-anchor="middle" x="355" y="-336.317" font-family="Times,serif" font-size="9.00">863</text>
</g>
<!-- 863&#45;&gt;828 -->
<g id="edge2" class="edge"><title>863&#45;&gt;828</title>
<path fill="none" stroke="green" stroke-width="0.627599" d="M352.373,-317.437C351.324,-309.426 350.095,-300.032 348.944,-291.235"/>
<polygon fill="green" stroke="green" stroke-width="0.627599" points="352.412,-290.763 347.645,-281.302 345.472,-291.671 352.412,-290.763"/>
</g>
<!-- 863&#45;&gt;554 -->
<g id="edge16" class="edge"><title>863&#45;&gt;554</title>
<path fill="none" stroke="green" stroke-width="0.266284" d="M366.346,-320.174C372.803,-310.305 381.012,-297.757 388.203,-286.765"/>
<polygon fill="green" stroke="green" stroke-width="0.266284" points="391.153,-288.649 393.699,-278.364 385.295,-284.816 391.153,-288.649"/>
</g>
</g>
</svg>
